<?xml version="1.0" standalone="no"?>
<!DOCTYPE svg PUBLIC "-//W3C//DTD SVG 20010904//EN"
 "http://www.w3.org/TR/2001/REC-SVG-20010904/DTD/svg10.dtd">
<svg version="1.0" xmlns="http://www.w3.org/2000/svg"
 width="34pt" height="34pt" viewBox="0 0 600 600"
 preserveAspectRatio="xMidYMid meet">

<g transform="translate(0.000000,600.000000) scale(0.100000,-0.100000)"
fill="#2631b3" stroke="none">
<path d="M1895 5951 c-1184 -502 -1938 -1679 -1892 -2956 17 -473 120 -879
328 -1295 444 -885 1277 -1500 2249 -1659 329 -54 645 -54 980 0 1060 169
1967 900 2363 1904 58 147 71 185 64 185 -2 0 -25 -31 -50 -69 -73 -110 -202
-265 -316 -380 -572 -576 -1367 -881 -2166 -831 -1382 87 -2481 1130 -2641
2505 -20 175 -15 563 11 725 117 755 506 1406 1109 1858 38 29 65 52 60 52 -5
0 -49 -18 -99 -39z"/>
</g>
</svg>
